          <svg width="30" height="25" viewBox="0 0 30 25" xmlns="http://www.w3.org/2000/svg">
            <path d="M29.8804 11.7271C29.8864 11.7278 29.8932 11.7285 29.8992 11.7285C29.9461 11.7285 29.9891 11.6942 29.9979 11.6459C30.0079 11.5915 29.9717 11.5391 29.9173 11.5284C28.5427 11.2752 27.537 10.9952 24.1439 11.0234C24.3554 10.2411 24.4696 9.31579 24.4924 8.21984C24.487 5.24844 23.0648 4.19757 22.7915 3.70398C23.1944 1.45446 22.7243 0.430411 22.5061 0.0791896C21.7003 -0.207568 19.7026 0.816541 18.6114 1.53837C16.8319 1.01796 13.0715 1.06827 11.6613 1.67265C9.05923 -0.190797 7.68259 0.094593 7.68259 0.094593C7.68259 0.094593 6.79282 1.68942 7.44757 4.02291C6.5914 5.1141 5.95349 5.88635 5.95349 7.93308C5.95349 9.08606 6.08913 10.1181 6.39534 11.0193C5.0335 11.0159 2.17919 11.1992 0.84222 11.5296C0.78852 11.5431 0.755635 11.5981 0.768361 11.6518C0.779779 11.6975 0.821403 11.7284 0.866421 11.7284C0.874449 11.7284 0.882539 11.7277 0.890568 11.7257C2.23967 11.392 5.18931 11.2106 6.46783 11.2214C6.54103 11.4155 6.62298 11.6035 6.71361 11.7855C3.42661 11.8728 2.54047 12.3421 1.1605 12.6866C1.06047 12.7122 0.962407 12.7364 0.867079 12.7599C0.813379 12.7732 0.779775 12.8283 0.793215 12.882C0.804633 12.9277 0.845549 12.9585 0.89128 12.9585C0.899308 12.9585 0.907398 12.9579 0.915426 12.9559C1.01075 12.9317 1.10882 12.9075 1.20956 12.882C2.59357 12.5362 3.49178 12.0641 6.8184 11.9842C7.79606 13.7596 9.68169 14.8643 12.8619 15.1698C12.408 15.5143 11.8627 16.1684 11.7875 16.9244C11.2167 17.2938 10.0691 17.4153 9.17668 17.134C7.92635 16.7391 7.44757 14.2633 5.57544 14.6159C5.16981 14.6924 5.25039 14.9597 5.60089 15.1866C6.17167 15.5559 6.70891 16.018 7.12323 17.0017C7.44151 17.7571 8.11035 19.1069 10.2256 19.1069C11.0649 19.1069 11.6532 19.0061 11.6532 19.0061C11.6532 19.0061 11.6695 20.9341 11.6695 21.6835C11.6695 22.5477 10.5031 22.7915 10.5031 23.2072C10.5031 23.3717 10.8892 23.3871 11.1994 23.3871C11.8125 23.3871 13.0884 22.8754 13.0884 21.9769C13.0884 21.2631 13.0998 18.8632 13.0998 18.4434C13.0998 17.5255 13.592 17.2347 13.592 17.2347C13.592 17.2347 13.6532 22.1347 13.4745 22.7914C13.265 23.5637 12.887 23.4542 12.887 23.7987C12.887 24.3111 14.4227 23.9243 14.9317 22.7995C15.3252 21.9238 15.1533 17.1172 15.1533 17.1172L15.5729 17.1085C15.5729 17.1085 15.5965 19.3091 15.5823 20.315C15.5676 21.3564 15.4971 22.674 16.1155 23.2951C16.5218 23.7034 17.8392 24.4199 17.8392 23.7652C17.8392 23.3844 17.1173 23.0715 17.1173 22.0414C17.1173 20.9207 17.1173 17.6155 17.1173 17.3019C17.6935 17.3019 17.6069 18.8605 17.6069 18.8605L17.6492 21.756C17.6492 21.756 17.5223 22.8109 18.7901 23.2528C19.2373 23.4092 20.1948 23.4516 20.2399 23.189C20.2848 22.9258 19.0869 22.5343 19.0761 21.7171C19.0694 21.2188 19.0983 20.928 19.0983 18.7624C19.0983 16.5969 18.8075 15.7964 17.7942 15.1585C20.9214 14.8369 22.8567 14.0633 23.8002 11.991C24.884 12.0266 27.1534 12.1374 29.7911 12.9438C29.8005 12.9472 29.8106 12.9485 29.8207 12.9485C29.8637 12.9485 29.9033 12.9204 29.9167 12.8774C29.9328 12.8237 29.9033 12.7672 29.8496 12.7511C27.2481 11.9554 25.0478 11.8311 23.8862 11.7922C23.9593 11.6122 24.0265 11.4235 24.0863 11.2254C27.4988 11.194 28.5072 11.4733 29.8804 11.7271ZM6.18838 15.0214C6.0632 15.0214 5.96175 14.9538 5.96175 14.8703C5.96175 14.7869 6.0632 14.7193 6.18838 14.7193C6.31351 14.7193 6.41502 14.787 6.41502 14.8703C6.41502 14.9538 6.31351 15.0214 6.18838 15.0214ZM6.66681 15.2537C6.66681 15.1703 6.76826 15.1026 6.89339 15.1026C7.01857 15.1026 7.12002 15.1703 7.12002 15.2537C7.12002 15.3372 7.01857 15.4048 6.89339 15.4048C6.76826 15.4048 6.66681 15.3372 6.66681 15.2537ZM7.09766 15.7658C7.09766 15.6823 7.19917 15.6146 7.3243 15.6146C7.44942 15.6146 7.55093 15.6823 7.55093 15.7658C7.55093 15.8492 7.44942 15.9168 7.3243 15.9168C7.19917 15.9168 7.09766 15.8492 7.09766 15.7658ZM7.70204 16.496C7.57686 16.496 7.47534 16.4284 7.47534 16.3449C7.47534 16.2615 7.57686 16.1938 7.70204 16.1938C7.82716 16.1938 7.92867 16.2615 7.92867 16.3449C7.92867 16.4284 7.82722 16.496 7.70204 16.496ZM8.13295 17.0416C8.00776 17.0416 7.90631 16.974 7.90631 16.8905C7.90631 16.8071 8.00776 16.7394 8.13295 16.7394C8.25807 16.7394 8.35952 16.8071 8.35952 16.8905C8.35952 16.974 8.25807 17.0416 8.13295 17.0416ZM8.71485 17.5061C8.58972 17.5061 8.48827 17.4384 8.48827 17.355C8.48827 17.2716 8.58972 17.2039 8.71485 17.2039C8.84003 17.2039 8.94148 17.2716 8.94148 17.355C8.94148 17.4384 8.84003 17.5061 8.71485 17.5061ZM9.52909 17.8083C9.40391 17.8083 9.30246 17.7406 9.30246 17.6571C9.30246 17.5737 9.40391 17.5061 9.52909 17.5061C9.65421 17.5061 9.75573 17.5738 9.75573 17.6571C9.75573 17.7406 9.65427 17.8083 9.52909 17.8083ZM10.3461 17.8083C10.2209 17.8083 10.1194 17.7406 10.1194 17.6571C10.1194 17.5737 10.2209 17.5061 10.3461 17.5061C10.4712 17.5061 10.5726 17.5738 10.5726 17.6571C10.5727 17.7406 10.4713 17.8083 10.3461 17.8083ZM11.1659 17.6795C11.0408 17.6795 10.9393 17.6119 10.9393 17.5285C10.9393 17.445 11.0408 17.3774 11.1659 17.3774C11.2911 17.3774 11.3926 17.445 11.3926 17.5285C11.3926 17.6119 11.2911 17.6795 11.1659 17.6795ZM17.5848 14.4632C16.9089 14.4856 16.2079 14.497 15.5018 14.497C14.7888 14.497 14.1004 14.4854 13.4562 14.4624C10.0205 14.3419 8.12825 12.8919 8.12825 10.3797C8.12825 10.1188 8.18344 9.20173 8.89427 8.34954C9.58511 7.52133 10.6437 7.08334 11.9556 7.08334C12.045 7.08334 12.2049 7.09321 12.5295 7.11331C13.2251 7.15661 14.3895 7.22898 15.5424 7.22898C16.5863 7.22898 17.6422 7.15191 18.2095 7.1104C18.475 7.09089 18.5816 7.08334 18.6502 7.08334C21.441 7.08334 22.4353 8.8665 22.4353 10.5351C22.4354 12.2546 21.5938 14.3319 17.5848 14.4632Z"></path>
            <path d="M5.50554 16.6361C6.04628 16.6361 5.5147 15.7973 5.50548 15.405C5.50304 15.7869 4.96479 16.6361 5.50554 16.6361Z"></path>
            <path d="M16.0369 13.0266C15.9813 13.0266 15.9362 13.0717 15.9362 13.1274C15.9362 13.3493 15.6754 13.5974 15.3263 13.5974C15.2759 13.5974 15.2275 13.5919 15.1811 13.5819C15.0652 13.557 14.9629 13.5046 14.8791 13.443C14.8624 13.4306 14.8464 13.4179 14.8312 13.405C14.7855 13.3663 14.7469 13.3256 14.7166 13.2867C14.666 13.2221 14.638 13.1629 14.638 13.1274C14.638 13.0717 14.5929 13.0266 14.5373 13.0266C14.4816 13.0266 14.4365 13.0717 14.4365 13.1274C14.4365 13.1561 14.4424 13.1881 14.4537 13.2222C14.4706 13.2733 14.4997 13.329 14.5393 13.385C14.579 13.4409 14.6293 13.4971 14.6886 13.5493C14.7479 13.6015 14.8163 13.6496 14.8921 13.6894C14.9869 13.7392 15.0934 13.7759 15.2084 13.7911C15.2468 13.7962 15.2861 13.7989 15.3262 13.7989C15.5354 13.7989 15.7169 13.7311 15.8548 13.6284C15.8745 13.6137 15.8934 13.5983 15.9112 13.5823C15.947 13.5502 15.979 13.5157 16.007 13.4795C16.0768 13.3888 16.121 13.2875 16.1338 13.1873C16.1363 13.1673 16.1376 13.1473 16.1376 13.1274C16.1377 13.0717 16.0925 13.0266 16.0369 13.0266Z"></path>
            <path d="M15.0279 12.4876C15.0528 12.5245 15.0847 12.5564 15.1216 12.5813C15.1354 12.5906 15.15 12.599 15.1652 12.6063C15.1955 12.621 15.2283 12.6313 15.2628 12.6365C15.28 12.6392 15.2977 12.6405 15.3156 12.6405C15.3875 12.6405 15.4543 12.6187 15.5096 12.5812C15.5327 12.5657 15.5538 12.5474 15.5725 12.5268C15.5985 12.4982 15.6176 12.4641 15.6329 12.4279C15.6506 12.3863 15.6626 12.3416 15.6626 12.2935C15.6626 12.1019 15.5072 11.9465 15.3156 11.9465C15.2198 11.9465 15.1331 11.9854 15.0703 12.0482C15.0676 12.051 15.0656 12.0543 15.0629 12.0572C15.045 12.0763 15.0299 12.0976 15.0167 12.1203C14.9982 12.1522 14.9834 12.1864 14.9758 12.2237C14.9711 12.2463 14.9687 12.2696 14.9687 12.2936C14.9687 12.3176 14.9712 12.3409 14.9758 12.3635C14.9849 12.4087 15.0029 12.4506 15.0279 12.4876Z"></path>
            <path d="M12.4565 8.84868C12.3855 8.76132 12.3087 8.68396 12.2272 8.61801C12.1457 8.55206 12.0594 8.4974 11.9693 8.45571C11.8793 8.41403 11.7854 8.38506 11.6887 8.37044C11.6404 8.36312 11.5913 8.35937 11.5416 8.35937C10.7474 8.35937 10.1035 9.3189 10.1035 10.5026C10.1035 11.6862 10.7474 12.5115 11.5416 12.5115C11.5913 12.5115 11.6404 12.5083 11.6887 12.5019C11.7854 12.4892 11.8792 12.4641 11.9693 12.4275C12.0594 12.3909 12.1457 12.3428 12.2272 12.2839C12.3087 12.2252 12.3854 12.1558 12.4565 12.0767C12.5275 11.9976 12.5928 11.9088 12.6514 11.8112C12.8566 11.4697 12.9798 11.0204 12.9798 10.5026C12.9798 9.98471 12.8566 9.50973 12.6514 9.13925C12.5929 9.03333 12.5275 8.93604 12.4565 8.84868Z"></path>
            <path d="M19.318 8.35937C18.5237 8.35937 17.8799 9.3189 17.8799 10.5026C17.8799 11.6862 18.5237 12.5115 19.318 12.5115C20.1123 12.5115 20.7561 11.6862 20.7561 10.5026C20.7561 9.3189 20.1123 8.35937 19.318 8.35937Z"></path>
          </svg>
