<svg width="25" height="25" viewBox="0 0 25 25" xmlns="http://www.w3.org/2000/svg">
            <path d="M13.0606 10.855V10.8174C13.0527 10.8301 13.0444 10.8428 13.0361 10.855H13.0606Z"></path>
            <path d="M22.3202 0.0297851H1.99609C1.02331 0.0297851 0.234375 0.7999 0.234375 1.74903V22.311C0.234375 23.2597 1.02331 24.0298 1.99609 24.0298H22.3202C23.2944 24.0298 24.0833 23.2592 24.0833 22.311V1.74903C24.0833 0.799418 23.2939 0.0297851 22.3202 0.0297851ZM7.46313 20.1208H3.86106V9.28372H7.46313V20.1208ZM5.66234 7.80332H5.63821C4.42996 7.80332 3.64826 6.97096 3.64826 5.93111C3.64826 4.8681 4.45409 4.0589 5.68598 4.0589C6.91836 4.0589 7.67641 4.8681 7.70054 5.93111C7.70054 6.97096 6.91788 7.80332 5.66234 7.80332ZM20.4523 20.1208H16.8502V14.3218C16.8502 12.8655 16.3291 11.8715 15.0258 11.8715C14.0308 11.8715 13.4383 12.5417 13.1772 13.1893C13.0822 13.4204 13.059 13.7437 13.059 14.068V20.1203H9.45694C9.45694 20.1203 9.50423 10.299 9.45694 9.28323H13.059V10.8172C13.5377 10.0789 14.3937 9.02749 16.3059 9.02749C18.6756 9.02749 20.4528 10.5769 20.4528 13.9059V20.1208H20.4523Z"></path>
          </svg>