          <svg width="24" height="25" viewBox="0 0 24 25" xmlns="http://www.w3.org/2000/svg">
            <path d="M23.8898 12.6671C23.52 11.5684 22.3295 10.9775 21.2308 11.3473L19.0025 12.0973L17.4923 7.61036L19.6625 6.87993C20.7612 6.51015 21.3521 5.31964 20.9823 4.22095C20.6125 3.12222 19.422 2.53133 18.3233 2.90116L16.1531 3.63159L15.4222 1.45982C15.0523 0.361087 13.8619 -0.229798 12.7632 0.140033C11.6644 0.509816 11.0736 1.70033 11.4434 2.79901L12.1744 4.97079L7.59281 6.51285L6.87069 4.36737C6.50085 3.26864 5.31039 2.67775 4.2117 3.04758C3.11297 3.41741 2.52209 4.60788 2.89192 5.70656L3.61404 7.85205L1.43003 8.58714C0.331301 8.95697 -0.259582 10.1474 0.110249 11.2461C0.480031 12.3449 1.67055 12.9357 2.76923 12.5659L4.95323 11.8308L6.46347 16.3178L4.33754 17.0333C3.2388 17.4032 2.64792 18.5936 3.01775 19.6923C3.38753 20.791 4.57805 21.3819 5.67673 21.0121L7.80266 20.2966L8.5779 22.5998C8.94773 23.6985 10.1382 24.2894 11.2369 23.9196C12.3356 23.5498 12.9265 22.3593 12.5567 21.2606L11.7814 18.9574L16.363 17.4153L17.1294 19.6923C17.4992 20.791 18.6897 21.3819 19.7883 21.012C20.8871 20.6422 21.478 19.4517 21.1081 18.3531L20.3417 16.0761L22.57 15.3261C23.6687 14.9563 24.2596 13.7659 23.8898 12.6671ZM10.4421 14.9786L8.93191 10.4916L13.5135 8.94955L15.0237 13.4365L10.4421 14.9786Z"></path>
          </svg>
