<svg width="30" height="25" viewBox="0 0 30 25" xmlns="http://www.w3.org/2000/svg">
            <path d="M29.6135 2.87053C28.5276 3.35292 27.3597 3.67843 26.1336 3.82446C27.3849 3.07513 28.3452 1.88789 28.7978 0.47237C27.627 1.16697 26.3309 1.6713 24.9504 1.94322C23.8455 0.765688 22.2707 0.0297854 20.5282 0.0297854C17.1822 0.0297854 14.4695 2.7426 14.4695 6.08858C14.4695 6.56335 14.523 7.02554 14.6264 7.46897C9.59093 7.21665 5.12623 4.80476 2.13802 1.13886C1.61666 2.03338 1.31783 3.07399 1.31783 4.1848C1.31783 6.2867 2.38739 8.14102 4.01308 9.22785C3.02019 9.19596 2.08556 8.92375 1.26891 8.46971C1.26837 8.49489 1.26837 8.52037 1.26837 8.54644C1.26837 11.4814 3.35685 13.9302 6.12877 14.4872C5.62031 14.6254 5.08499 14.6997 4.53234 14.6997C4.14155 14.6997 3.76221 14.6619 3.39222 14.5908C4.16355 16.9978 6.40099 18.7496 9.05177 18.7985C6.97822 20.4236 4.36605 21.3922 1.5271 21.3922C1.0383 21.3922 0.556208 21.3632 0.0820313 21.3076C2.7638 23.0269 5.94816 24.0298 9.3696 24.0298C20.5141 24.0298 26.6078 14.7975 26.6078 6.79103C26.6078 6.52876 26.6025 6.2668 26.5908 6.00717C27.7742 5.15305 28.8019 4.08589 29.6135 2.87053Z"></path>
          </svg>